<svg width="368" height="48" viewBox="0 0 368 48" fill="none" xmlns="http://www.w3.org/2000/svg">
<g opacity="0.12" filter="url(#filter0_d_3_841)">
<path fill-rule="evenodd" clip-rule="evenodd" d="M8 0H360C362.2 0 364 1.8 364 4V40H4V4C4 1.8 5.8 0 8 0ZM20.9288 23.5C22.1793 25.6658 24.4901 27 26.991 27C30.857 27 33.991 23.866 33.991 20C33.991 16.134 30.857 13 26.991 13C24.4901 13 22.1793 14.3342 20.9288 16.5C19.6784 18.6658 19.6784 21.3342 20.9288 23.5ZM50.002 27C47.5011 27 45.1903 25.6658 43.9398 23.5C42.6894 21.3342 42.6894 18.6658 43.9398 16.5C45.1903 14.3342 47.5011 13 50.002 13C53.868 13 57.002 16.134 57.002 20C57.002 23.866 53.868 27 50.002 27ZM66.9508 23.5C68.2013 25.6658 70.5121 27 73.013 27C76.879 27 80.013 23.866 80.013 20C80.013 16.134 76.879 13 73.013 13C70.5121 13 68.2013 14.3342 66.9508 16.5C65.7004 18.6658 65.7004 21.3342 66.9508 23.5Z" fill="#4D4D4D"/>
</g>
<defs>
<filter id="filter0_d_3_841" x="0" y="0" width="368" height="48" filterUnits="userSpaceOnUse" color-interpolation-filters="sRGB">
<feFlood flood-opacity="0" result="BackgroundImageFix"/>
<feColorMatrix in="SourceAlpha" type="matrix" values="0 0 0 0 0 0 0 0 0 0 0 0 0 0 0 0 0 0 127 0" result="hardAlpha"/>
<feOffset dy="4"/>
<feGaussianBlur stdDeviation="2"/>
<feComposite in2="hardAlpha" operator="out"/>
<feColorMatrix type="matrix" values="0 0 0 0 0 0 0 0 0 0 0 0 0 0 0 0 0 0 0.25 0"/>
<feBlend mode="normal" in2="BackgroundImageFix" result="effect1_dropShadow_3_841"/>
<feBlend mode="normal" in="SourceGraphic" in2="effect1_dropShadow_3_841" result="shape"/>
</filter>
</defs>
</svg>
