<svg width="368" height="48" viewBox="0 0 368 48" fill="none" xmlns="http://www.w3.org/2000/svg">
<g filter="url(#filter0_d_3_898)">
<path fill-rule="evenodd" clip-rule="evenodd" d="M8 0H360C362.2 0 364 1.8 364 4V40H4V4C4 1.8 5.8 0 8 0ZM20.9288 23.5C22.1792 25.6658 24.4901 27 26.991 27C30.857 27 33.991 23.866 33.991 20C33.991 16.134 30.857 13 26.991 13C24.4901 13 22.1792 14.3342 20.9288 16.5C19.6784 18.6658 19.6784 21.3342 20.9288 23.5ZM50.002 27C47.5011 27 45.1902 25.6658 43.9398 23.5C42.6893 21.3342 42.6893 18.6658 43.9398 16.5C45.1902 14.3342 47.5011 13 50.002 13C53.8679 13 57.002 16.134 57.002 20C57.002 23.866 53.8679 27 50.002 27ZM66.9508 23.5C68.2012 25.6658 70.5121 27 73.0129 27C76.8789 27 80.0129 23.866 80.0129 20C80.0129 16.134 76.8789 13 73.0129 13C70.5121 13 68.2012 14.3342 66.9508 16.5C65.7003 18.6658 65.7003 21.3342 66.9508 23.5Z" fill="#4D4D4D"/>
</g>
<defs>
<filter id="filter0_d_3_898" x="0" y="0" width="368" height="48" filterUnits="userSpaceOnUse" color-interpolation-filters="sRGB">
<feFlood flood-opacity="0" result="BackgroundImageFix"/>
<feColorMatrix in="SourceAlpha" type="matrix" values="0 0 0 0 0 0 0 0 0 0 0 0 0 0 0 0 0 0 127 0" result="hardAlpha"/>
<feOffset dy="4"/>
<feGaussianBlur stdDeviation="2"/>
<feComposite in2="hardAlpha" operator="out"/>
<feColorMatrix type="matrix" values="0 0 0 0 0 0 0 0 0 0 0 0 0 0 0 0 0 0 0.25 0"/>
<feBlend mode="normal" in2="BackgroundImageFix" result="effect1_dropShadow_3_898"/>
<feBlend mode="normal" in="SourceGraphic" in2="effect1_dropShadow_3_898" result="shape"/>
</filter>
</defs>
</svg>
